#!OML:ASF I:\Actors\actors\Patient Classification 1\Patient 1\Session 1\Subject1.ASF
:FULLY-SPECIFIED
:DEGREES
1416
root -1.52774 17.4019 8.7301 51.9233 -39.9208 -14.4339
lowerback 20.8276 -1.5224 15.4013
upperback -3.84633 3.15081 8.4409
thorax -15.4557 0.378851 -0.0992537
lowerneck 3.64091 -7.59383 0.317555
upperneck -12.0162 -10.2277 1.61373
head -4.54964 -5.2202 1.00736
rclavicle 8.0309e-014 8.74653e-015
rhumerus -34.395 -4.74651 -78.791
rradius 52.9262
rwrist 12.1903
rhand 10.5642 -23.4128
rfingers 7.12502
rthumb 35.6613 -49.8118
lclavicle 8.0309e-014 8.74653e-015
lhumerus -36.3552 -8.5281 99.3218
lradius 46.0943
lwrist 7.04956
lhand -24.7869 -17.31
lfingers 7.12502
lthumb 1.71738 12.6629
rfemur -66.3222 39.6544 -16.9237
rtibia 4.40767
rfoot -3.42543 -17.7974
rtoes -3.53558
lfemur -29.9085 -2.14565 5.98062
ltibia 0.931565
lfoot -55.6229 52.8348
ltoes 33.5045
1417
root -1.54301 17.4 8.74148 52.2441 -39.8694 -14.5328
lowerback 20.9296 -1.47291 15.217
upperback -3.80803 3.18439 8.4279
thorax -15.4727 0.409994 -0.0322065
lowerneck 3.79964 -7.51062 0.297479
upperneck -12.5597 -10.1185 1.72725
head -4.7749 -5.17424 1.07282
rclavicle 1.98785e-014 1.43125e-014
rhumerus -34.3625 -4.79525 -78.8018
rradius 52.8995
rwrist 12.2952
rhand 10.6248 -23.1949
rfingers 7.12502
rthumb 35.7187 -49.58
lclavicle 1.98785e-014 1.43125e-014
lhumerus -36.1839 -8.41868 99.2653
lradius 46.1059
lwrist 7.22697
lhand -24.7246 -17.3731
lfingers 7.12502
lthumb 1.77754 12.5992
rfemur -66.6087 39.6162 -17.0672
rtibia 4.39289
rfoot -3.46337 -17.9615
rtoes -3.08375
lfemur -30.1145 -2.61842 6.35781
ltibia 0.863227
lfoot -56.2254 53.5825
ltoes 32.9526
1418
root -1.55851 17.3974 8.75195 52.5736 -39.815 -14.6489
lowerback 21.0299 -1.44011 14.9747
upperback -3.75692 3.18366 8.46365
thorax -15.4852 0.433821 0.129409
lowerneck 3.75161 -7.39164 0.191088
upperneck -12.9231 -9.96326 1.85944
head -4.88728 -5.10344 1.13829
rclavicle 3.89618e-014 2.14687e-014
rhumerus -34.3036 -4.63497 -78.8049
rradius 52.8832
rwrist 12.3407
rhand 10.6659 -23.0795
rfingers 7.12502
rthumb 35.7577 -49.4552
lclavicle 3.89618e-014 2.14687e-014
lhumerus -36.0224 -8.26205 99.1948
lradius 46.1821
lwrist 7.38419
lhand -24.7371 -17.4119
lfingers 7.12502
lthumb 1.7655 12.5605
rfemur -66.9098 39.5899 -17.2018
rtibia 4.37102
rfoot -3.38375 -18.1035
rtoes -3.20661
lfemur -30.3102 -3.13614 6.77844
ltibia 0.7706
lfoot -56.8556 54.469
ltoes 32.1801
1419
root -1.57276 17.3956 8.76132 52.8717 -39.6836 -14.7907
lowerback 21.1951 -1.41754 14.8075
upperback -3.72365 3.20898 8.52137
thorax -15.5493 0.459592 0.269755
lowerneck 3.76941 -7.28849 0.0911858
upperneck -13.7468 -9.81913 2.03365
head -4.64486 -5.05009 1.11101
rclavicle 2.38542e-015 -3.4191e-014
rhumerus -34.2938 -4.4079 -78.7869
rradius 52.8807
rwrist 12.2453
rhand 10.6202 -23.0882
rfingers 7.12502
rthumb 35.7143 -49.4743
lclavicle 2.38542e-015 -3.4191e-014
lhumerus -35.9355 -8.01671 99.1582
lradius 46.2813
lwrist 7.43054
lhand -24.8433 -17.4142
lfingers 7.12502
lthumb 1.66288 12.5591
rfemur -67.1335 39.5745 -17.214
rtibia 4.34666
rfoot -3.33593 -18.2727
rtoes -2.98615
lfemur -30.4685 -3.37437 7.15744
ltibia 0.704071
lfoot -57.2488 54.9673
ltoes 31.7211
1420
root -1.58422 17.3944 8.77102 53.0921 -39.5778 -14.862
lowerback 21.3683 -1.50083 14.486
upperback -3.7091 3.0748 8.71101
thorax -15.6773 0.431239 0.689684
lowerneck 4.18547 -7.07505 -0.323162
upperneck -14.2621 -9.57361 2.05829
head -4.85353 -4.91138 1.2034
rclavicle 3.26007e-014 -1.07344e-013
rhumerus -34.2912 -3.63488 -78.7687
rradius 52.9023
rwrist 12.0767
rhand 10.5484 -23.1833
rfingers 7.12502
rthumb 35.6463 -49.5859
lclavicle 3.26007e-014 -1.07344e-013
lhumerus -35.894 -7.1006 99.1462
lradius 46.3436
lwrist 7.34476
lhand -24.9719 -17.3429
lfingers 7.12502
lthumb 1.53875 12.6313
rfemur -67.2872 39.5422 -17.2523
rtibia 4.30706
rfoot -3.35567 -18.4481
rtoes -2.47562
lfemur -30.622 -3.57123 7.41943
ltibia 0.672673
lfoot -57.5824 55.2778
ltoes 31.5196
1421
root -1.59312 17.3926 8.78188 53.3026 -39.4964 -14.9264
lowerback 21.5262 -1.85776 13.7608
upperback -3.65458 2.51061 9.32037
thorax -15.8372 0.269185 1.93319
lowerneck 4.73723 -6.38454 -1.74678
upperneck -14.6676 -8.7466 2.30148
head -5.00499 -4.4447 1.48982
rclavicle -1.59028e-015 1.33981e-013
rhumerus -34.0553 -1.39787 -78.7728
rradius 52.9082
rwrist 11.7741
rhand 10.5474 -23.3076
rfingers 7.12502
rthumb 35.6454 -49.7105
lclavicle -1.59028e-015 1.33981e-013
lhumerus -35.8616 -4.8411 99.1246
lradius 46.4833
lwrist 7.26212
lhand -25.0945 -17.4031
lfingers 7.12502
lthumb 1.42025 12.5719
rfemur -67.4314 39.5148 -17.3175
rtibia 4.24316
rfoot -3.32068 -18.6112
rtoes -2.15472
lfemur -30.7888 -4.04424 7.76134
ltibia 0.622686
lfoot -58.1991 55.8766
ltoes 31.0637
1422
root -1.60166 17.3909 8.79034 53.5345 -39.3277 -15.0675
lowerback 21.6583 -1.84167 13.7674
upperback -3.58522 2.54715 9.29651
thorax -15.8206 0.285365 1.8896
lowerneck 4.44724 -6.29862 -1.59076
upperneck -14.7019 -8.64223 2.11909
head -4.98451 -4.39228 1.3947
rclavicle 6.24184e-014 -3.61788e-014
rhumerus -33.9743 -1.37225 -78.8251
rradius 52.9438
rwrist 11.7439
rhand 10.593 -23.2754
rfingers 7.12502
rthumb 35.6885 -49.6678
lclavicle 6.24184e-014 -3.61788e-014
lhumerus -35.7665 -4.90632 99.0639
lradius 46.6286
lwrist 7.51757
lhand -25.0632 -17.4561
lfingers 7.12502
lthumb 1.45054 12.5188
rfemur -67.5574 39.5245 -17.2463
rtibia 4.20128
rfoot -3.22779 -18.7573
rtoes -1.68539
lfemur -30.94 -4.47723 8.23406
ltibia 0.578282
lfoot -58.7796 56.4271
ltoes 30.6621
1423
root -1.60956 17.3888 8.79614 53.7091 -39.1705 -15.1565
lowerback 21.7998 -1.8206 13.7021
upperback -3.54721 2.58098 9.28629
thorax -15.8526 0.305152 1.90075
lowerneck 4.54646 -6.18996 -1.70981
upperneck -15.0433 -8.51718 2.12641
head -5.10364 -4.32534 1.42279
rclavicle -6.71892e-014 4.8901e-014
rhumerus -33.9588 -1.31484 -78.832
rradius 52.9329
rwrist 11.828
rhand 10.6705 -23.1008
rfingers 7.12502
rthumb 35.762 -49.4754
lclavicle -6.71892e-014 4.8901e-014
lhumerus -35.7818 -4.86968 99.0453
lradius 46.8389
lwrist 7.72581
lhand -24.8911 -17.2114
lfingers 7.12502
lthumb 1.61676 12.7623
rfemur -67.6406 39.5275 -17.1822
rtibia 4.15282
rfoot -3.13238 -18.8868
rtoes -1.42833
lfemur -31.0731 -4.73188 8.57509
ltibia 0.553974
lfoot -59.019 56.8056
ltoes 30.3065
1424
root -1.61528 17.3874 8.80041 53.8445 -39.0361 -15.1715
lowerback 21.9217 -1.86011 13.9427
upperback -3.5286 2.57777 8.97156
thorax -15.8557 0.268707 1.42701
lowerneck 4.8085 -6.09131 -1.5871
upperneck -15.563 -8.34363 2.40754
head -5.30455 -4.26445 1.5048
rclavicle 1.39149e-014 -7.03698e-014
rhumerus -33.9712 -1.53863 -79.1883
rradius 52.9499
rwrist 11.9636
rhand 10.6867 -22.9842
rfingers 7.12502
rthumb 35.7774 -49.3551
lclavicle 1.39149e-014 -7.03698e-014
lhumerus -35.7498 -5.25202 98.7124
lradius 47.0267
lwrist 8.11178
lhand -24.509 -16.8494
lfingers 7.12502
lthumb 1.98577 13.1211
rfemur -67.698 39.4953 -17.1622
rtibia 4.07555
rfoot -3.05373 -19.0653
rtoes -1.41164
lfemur -31.2301 -4.86351 8.78065
ltibia 0.543605
lfoot -59.2237 56.9547
ltoes 30.1593
1425
root -1.6191 17.3871 8.80303 53.9392 -38.8866 -15.1515
lowerback 22.078 -2.06306 14.7862
upperback -3.54701 2.47622 8.18428
thorax -15.8599 0.113654 0.155633
lowerneck 4.88777 -6.11405 -1.34594
upperneck -15.7375 -8.24192 3.12226
head -5.35137 -4.27624 1.68744
rclavicle 2.74323e-014 5.60573e-014
rhumerus -34.0156 -2.21541 -80.1496
rradius 52.9745
rwrist 12.0952
rhand 10.6482 -23.0141
rfingers 7.12502
rthumb 35.7409 -49.3939
lclavicle 2.74323e-014 5.60573e-014
lhumerus -35.7245 -6.18809 97.8431
lradius 47.0364
lwrist 8.32316
lhand -24.7128 -17.2014
lfingers 7.12502
lthumb 1.78898 12.7708
rfemur -67.7157 39.4448 -17.1223
rtibia 3.99698
rfoot -2.99571 -19.2909
rtoes -1.28866
lfemur -31.393 -4.8318 8.90241
ltibia 0.572158
lfoot -59.5462 56.724
ltoes 30.5866
1426
root -1.62124 17.3858 8.80545 53.9756 -38.7704 -15.0931
lowerback 22.1501 -2.04156 14.7148
upperback -3.45713 2.47487 8.09393
thorax -15.7872 0.122345 0.089596
lowerneck 4.71846 -6.05268 -1.56496
upperneck -15.8307 -8.1504 3.34342
head -5.33403 -4.2361 1.78078
rclavicle -7.95139e-014 9.22361e-014
rhumerus -33.9086 -2.19143 -80.199
rradius 52.9994
rwrist 11.9841
rhand 10.5822 -23.0269
rfingers 7.12502
rthumb 35.6783 -49.4218
lclavicle -7.95139e-014 9.22361e-014
lhumerus -35.5618 -6.40674 97.897
lradius 46.7744
lwrist 7.81152
lhand -25.8068 -18.1241
lfingers 7.12502
lthumb 0.73233 11.8544
rfemur -67.691 39.3921 -17.1115
rtibia 3.90803
rfoot -2.88058 -19.4967
rtoes -1.42118
lfemur -31.528 -4.80807 8.95451
ltibia 0.608826
lfoot -59.843 56.4583
ltoes 31.0349
